<!-- Africa silhouette — Natural Earth 110m, CC BY-SA. fill="currentColor". -->
<svg xmlns="http://www.w3.org/2000/svg" viewBox="0 0 100 100" fill="currentColor" stroke="none" aria-hidden="true">
  <path d="M14.8,43.1L14.5,43.0L13.6,42.5L13.0,41.9L12.7,41.4L12.6,40.5L12.0,39.7L11.6,39.2L11.2,39.1L10.9,38.8L10.8,38.3L10.6,38.0L10.2,37.8L9.6,37.3L9.0,37.2L8.8,36.9L8.8,36.7L8.4,36.4L8.3,36.1L8.1,35.2L8.3,34.6L7.7,33.7L7.1,33.2L7.7,33.0L8.3,32.1L8.6,31.5L8.5,30.8L8.8,30.2L9.0,29.0L8.8,27.8L8.7,27.1L8.8,26.5L8.5,25.9L7.8,25.4L7.9,24.9L7.9,24.3L8.4,23.9L8.8,23.3L8.7,22.9L9.2,22.0L9.9,21.2L10.3,21.0L10.6,20.3L10.6,19.6L11.1,18.8L11.9,18.4L12.7,17.1L12.7,17.1L13.4,16.6L14.5,16.5L15.5,15.6L16.1,15.3L17.2,14.2L16.9,12.7L17.3,11.6L17.5,11.0L18.3,10.1L19.6,9.6L20.5,9.0L21.3,7.7L21.7,7.0L22.6,7.0L23.4,7.5L24.6,7.4L25.9,7.7L26.4,7.7L27.6,7.0L28.9,6.8L29.7,6.3L30.9,5.9L33.0,5.7L35.1,5.6L35.7,5.8L36.9,5.3L38.2,5.3L38.8,5.6L39.6,5.5L41.0,5.0L41.8,5.1L41.8,5.8L42.9,5.3L42.9,5.6L42.3,6.2L42.3,6.7L42.7,7.1L42.6,8.1L41.8,8.8L42.0,9.4L42.6,9.5L43.0,10.1L43.4,10.3L44.9,10.7L45.4,10.6L46.5,10.8L48.1,11.3L48.7,12.4L49.8,12.7L51.6,13.2L52.9,13.8L53.5,13.5L54.1,12.9L53.8,12.0L54.2,11.4L55.1,10.8L56.0,10.6L57.7,10.9L58.1,11.4L58.5,11.4L58.9,11.7L60.2,11.8L60.5,12.2L62.1,12.2L63.3,12.5L64.6,12.9L65.2,13.1L66.1,12.7L66.6,12.3L67.7,12.2L68.6,12.4L69.0,13.0L69.3,12.6L70.3,12.9L71.2,13.0L71.8,12.6L71.8,12.6L72.5,14.5L72.7,14.8L72.3,15.3L72.0,16.2L71.7,16.9L71.4,17.1L71.0,16.7L70.4,16.1L69.5,14.4L69.4,14.5L69.9,15.8L70.7,17.0L71.6,19.0L72.1,19.7L72.5,20.4L73.6,21.7L73.4,22.0L73.4,22.8L74.9,23.9L75.1,24.1L75.5,25.4L75.2,25.6L75.4,26.9L75.8,28.4L76.3,28.7L77.0,29.1L77.7,30.6L78.1,31.7L78.8,32.3L80.5,33.5L81.2,34.2L81.8,34.9L82.2,35.4L82.8,35.7L83.1,36.1L83.1,36.6L82.4,36.9L82.9,37.3L83.3,37.5L83.6,38.0L84.1,38.6L84.7,38.6L85.9,38.2L87.3,38.1L88.4,37.7L89.0,37.6L89.4,37.4L90.1,37.3L90.1,37.3L90.5,37.3L91.1,37.1L91.8,37.0L92.4,36.6L92.8,36.6L92.9,36.9L92.8,37.7L92.8,38.3L92.5,38.8L92.1,40.1L91.5,41.5L90.8,43.1L89.7,44.9L88.6,46.3L87.2,48.0L85.9,49.0L84.1,50.3L82.9,51.2L81.5,52.7L81.2,53.4L81.0,53.7L80.1,54.2L79.8,54.7L79.3,54.8L79.1,55.7L78.7,56.2L78.5,57.0L78.0,57.4L77.4,58.9L77.5,59.7L78.3,60.1L78.3,60.4L78.0,61.2L78.1,61.6L78.0,62.2L78.4,62.9L78.9,64.2L79.4,64.4L79.4,64.4L79.6,65.0L79.5,66.2L79.7,67.3L79.7,69.3L80.0,69.9L79.6,70.8L79.1,71.7L78.3,72.4L77.2,72.9L75.8,73.5L74.4,74.8L73.9,75.1L73.0,76.0L72.5,76.3L72.4,77.1L73.0,78.1L73.2,78.8L73.2,79.2L73.5,79.1L73.4,80.3L73.2,80.9L73.5,81.1L73.3,81.7L72.8,82.1L71.8,82.5L70.3,83.2L69.7,83.7L69.8,84.2L70.2,84.3L70.0,84.9L69.7,85.8L69.6,86.9L69.3,87.4L68.4,88.1L68.2,88.2L67.6,88.9L67.3,89.5L66.6,90.4L65.2,91.7L64.3,92.4L63.4,93.0L62.1,93.5L61.4,93.6L61.3,93.9L60.5,93.7L59.9,94.0L58.5,93.7L57.8,93.9L57.3,93.8L56.0,94.3L54.9,94.5L54.1,95.0L53.6,95.0L53.0,94.6L52.6,94.5L52.1,94.0L52.0,94.1L51.9,93.8L51.9,93.1L51.5,92.2L51.9,92.0L51.8,91.1L51.0,89.9L50.4,88.8L50.4,88.8L49.5,87.2L48.6,86.3L48.1,85.4L47.8,84.1L47.5,83.2L47.1,81.3L47.0,79.8L46.9,79.2L46.4,78.6L45.8,77.6L45.1,76.1L44.8,75.3L43.8,74.1L43.7,73.2L43.6,72.4L43.8,71.3L44.2,70.1L44.3,69.6L44.7,68.5L45.0,68.0L45.7,67.1L46.1,66.6L46.2,65.7L46.2,65.0L45.8,64.5L45.5,63.8L45.2,63.0L45.2,62.8L45.6,62.3L45.2,61.1L45.0,60.2L44.4,59.4L44.5,59.2L44.3,58.8L44.0,57.9L42.9,56.5L41.7,55.3L40.8,54.3L40.1,53.0L40.1,52.5L40.4,52.2L40.7,51.2L40.9,50.3L40.7,50.1L41.1,48.7L41.3,47.7L40.8,46.9L40.3,46.7L40.0,46.2L39.7,46.0L39.7,45.6L38.4,46.1L37.9,46.0L37.5,46.3L36.5,46.3L35.8,45.5L35.4,44.6L34.5,43.8L33.6,43.8L32.5,43.8L31.4,43.9L30.4,44.2L28.5,44.9L27.8,45.3L26.7,45.7L25.5,45.3L25.0,45.4L24.1,45.1L23.3,45.1L21.8,45.4L21.0,45.7L19.7,46.2L19.5,46.1L19.2,46.1L17.9,45.6L16.7,44.6L15.7,43.9L14.8,43.1Z M91.7,71.5L91.3,70.8L91.1,71.2L91.3,72.1L91.2,72.6L90.8,72.9L90.8,74.0L90.3,75.4L89.6,77.1L88.9,79.5L88.4,81.2L87.8,82.7L86.8,83.0L85.7,83.5L85.0,83.2L84.0,82.7L83.7,82.1L83.6,81.0L83.2,80.0L83.0,79.1L83.3,78.2L83.8,78.0L83.8,77.6L84.4,76.6L84.6,75.8L84.3,75.2L84.0,74.4L83.9,73.3L84.4,72.6L84.5,71.8L85.2,71.8L85.9,71.5L86.3,71.3L86.9,71.3L87.6,70.5L88.6,69.8L89.0,69.2L88.8,68.6L89.3,68.8L90.0,67.9L90.0,67.2L90.5,66.6L90.9,67.1L91.2,67.7L91.5,68.5L91.7,70.0L92.1,70.6L91.9,71.2L91.7,71.5Z"/>
</svg>
