<!-- Americas silhouette — Natural Earth 110m, CC BY-SA. fill="currentColor". -->
<svg xmlns="http://www.w3.org/2000/svg" viewBox="0 0 100 100" fill="currentColor" stroke="none" aria-hidden="true">
  <path d="M14.2,47.1L14.1,47.2L13.9,47.2L14.0,47.0L13.9,46.8L13.9,46.7L14.0,46.6L14.0,46.5L14.0,46.5L14.0,46.5L14.2,46.6L14.3,46.6L14.4,46.7L14.6,46.9L14.6,46.9L14.3,47.1L14.2,47.1Z M13.6,46.1L13.8,46.1L13.9,46.2L13.9,46.3L13.7,46.3L13.6,46.2L13.5,46.1L13.5,46.1L13.6,46.1Z M13.2,46.0L13.2,45.9L13.5,46.0L13.5,46.0L13.2,46.0Z M12.6,45.8L12.6,45.7L12.8,45.7L12.8,45.7L13.0,45.9L12.9,45.9L12.9,45.9L12.7,45.9L12.6,45.8Z M12.0,45.4L12.0,45.5L12.0,45.6L11.8,45.5L11.8,45.4L11.9,45.4L12.0,45.4Z M47.1,43.3L46.9,43.8L46.8,44.2L46.7,45.0L46.7,45.2L46.8,45.6L47.0,45.8L47.1,46.3L47.4,46.7L47.6,47.0L47.8,47.3L48.4,47.4L48.6,47.7L49.1,47.5L49.6,47.5L50.0,47.4L50.3,47.3L50.7,47.0L50.8,46.7L50.9,46.2L51.0,46.1L51.4,45.9L51.9,45.8L52.4,45.8L52.8,45.8L52.9,45.9L52.9,46.1L52.6,46.5L52.5,46.8L52.6,46.9L52.5,47.2L52.3,47.6L52.2,47.5L52.1,47.5L52.1,47.6L52.2,47.6L52.2,47.7L52.1,48.0L52.1,48.0L52.1,48.2L52.1,48.3L52.1,48.6L51.9,48.7L51.8,48.7L51.7,48.9L51.9,49.0L52.0,49.0L52.1,49.0L52.2,49.1L52.3,49.0L52.5,48.9L52.5,49.0L52.6,49.0L52.9,49.0L53.1,49.0L53.3,48.9L53.4,48.9L53.6,48.9L53.7,48.9L53.8,48.9L54.0,48.9L54.2,49.0L54.3,49.0L54.5,49.1L54.6,49.2L54.8,49.3L55.0,49.4L54.9,49.5L54.9,49.6L55.0,49.8L54.8,50.0L54.8,50.3L54.8,50.5L54.8,50.6L54.8,50.9L54.7,51.0L54.7,51.2L54.7,51.3L54.6,51.5L54.6,51.6L54.7,51.7L54.8,52.0L55.1,52.3L55.3,52.5L55.5,52.7L55.5,52.8L55.7,52.9L55.8,52.8L56.0,52.9L56.2,52.9L56.5,52.8L56.8,52.7L57.0,52.5L57.3,52.5L57.3,52.6L57.6,52.6L57.9,52.7L58.0,52.9L58.3,53.0L58.6,53.0L59.0,52.6L59.2,52.6L59.2,52.4L59.3,51.9L59.6,51.7L60.0,51.6L60.0,51.5L60.5,51.6L60.9,51.3L61.1,51.2L61.4,50.9L61.6,50.9L61.8,51.1L61.7,51.3L61.6,51.4L61.3,51.5L61.5,51.7L61.5,52.0L61.2,52.3L61.5,52.8L61.7,52.8L61.8,52.3L61.6,52.1L61.6,51.7L62.3,51.5L62.2,51.2L62.4,51.0L62.6,51.4L63.0,51.5L63.4,51.8L63.4,52.0L63.9,52.0L64.5,51.9L64.9,52.2L65.3,52.2L65.6,52.0L65.6,51.9L66.3,51.9L67.0,51.9L66.5,52.0L66.7,52.3L67.2,52.3L67.6,52.6L67.7,53.1L68.0,53.1L68.2,53.2L68.6,53.4L68.9,53.8L68.9,54.1L69.1,54.1L69.4,54.3L69.7,54.5L70.3,54.6L70.4,54.5L70.8,54.5L71.5,54.7L71.2,55.1L71.2,55.5L71.4,55.9L71.3,56.1L71.3,56.4L71.1,56.6L71.4,56.7L71.6,56.6L71.7,56.6L71.8,56.7L72.0,56.7L72.2,56.5L72.4,56.1L72.8,55.6L72.9,55.5L73.1,55.8L73.4,56.8L73.7,56.9L73.7,57.3L73.3,57.8L73.5,57.9L74.5,58.0L74.5,58.6L74.9,58.2L75.6,58.4L76.6,58.8L76.8,59.1L76.7,59.4L77.4,59.2L78.5,59.5L79.3,59.5L80.2,60.0L80.9,60.6L81.3,60.8L81.8,60.8L82.0,61.0L82.2,61.7L82.3,62.0L82.1,63.0L81.8,63.3L81.0,64.1L80.6,64.8L80.2,65.3L80.1,65.3L79.9,65.7L80.0,66.7L79.8,67.6L79.7,68.0L79.6,68.2L79.5,69.0L78.9,69.7L78.8,70.3L78.3,70.5L78.2,70.9L77.6,70.9L76.7,71.1L76.3,71.3L75.7,71.5L75.0,71.9L74.5,72.5L74.5,72.9L74.5,73.2L74.4,73.8L74.3,74.1L73.9,74.4L73.3,75.4L72.8,75.8L72.4,76.1L72.2,76.6L71.8,76.9L71.5,77.3L70.9,77.6L70.5,77.5L70.2,77.6L69.7,77.3L69.3,77.3L68.9,77.0L68.9,77.3L69.6,77.8L69.5,78.2L69.9,78.4L69.9,78.7L69.3,79.4L68.5,79.7L67.3,79.9L66.7,79.8L66.8,80.1L66.7,80.6L66.8,80.8L66.5,81.0L65.9,81.1L65.4,80.9L65.2,81.1L65.2,81.6L65.6,81.8L65.9,81.6L66.1,81.9L65.6,82.1L65.1,82.4L65.0,83.0L64.9,83.3L64.4,83.3L63.9,83.6L63.8,84.0L64.3,84.4L64.9,84.5L64.7,85.1L64.0,85.4L63.6,86.0L63.1,86.3L62.9,86.5L63.1,87.1L63.5,87.4L63.2,87.4L62.7,87.4L62.4,87.5L61.9,87.7L61.8,88.3L61.6,88.3L61.0,88.1L60.3,87.7L60.3,87.7L59.6,87.4L59.4,87.0L59.6,86.7L59.3,86.3L59.2,85.4L59.5,84.8L60.1,84.4L59.2,84.2L59.8,83.7L60.0,82.8L60.6,83.0L60.9,81.8L60.5,81.7L60.3,82.4L60.0,82.3L60.1,81.5L60.3,80.4L60.6,80.0L60.4,79.5L60.4,78.9L60.6,78.8L61.0,77.9L61.4,77.0L61.6,76.2L61.5,75.3L61.6,74.9L61.6,74.2L61.9,73.5L62.0,72.4L62.2,71.2L62.4,70.0L62.3,69.0L62.2,68.3L61.6,67.9L61.6,67.7L60.5,67.1L59.5,66.5L59.0,66.2L58.8,65.7L58.9,65.5L58.4,64.8L57.8,63.8L57.3,62.6L57.1,62.4L56.9,62.0L56.5,61.6L56.1,61.4L56.2,61.1L56.0,60.6L56.1,60.2L56.6,59.8L56.9,59.4L56.8,59.2L56.6,59.4L56.2,59.2L56.3,59.0L56.2,58.5L56.4,58.4L56.5,58.1L56.8,57.7L56.7,57.5L57.0,57.4L57.4,57.1L57.3,57.0L57.5,56.9L57.5,56.6L57.7,56.4L57.9,56.4L58.2,56.0L58.4,55.7L58.2,55.6L58.3,55.3L58.2,54.8L58.3,54.6L58.2,54.1L58.0,53.8L57.8,53.7L57.7,53.4L57.8,53.2L57.6,53.2L57.5,53.0L57.3,52.8L57.0,52.9L56.9,53.1L56.7,53.2L56.6,53.2L56.5,53.3L56.8,53.6L56.6,53.7L56.5,53.8L56.3,53.8L56.2,53.5L56.1,53.6L55.9,53.6L55.8,53.3L55.6,53.3L55.4,53.2L55.2,53.2L55.2,53.4L55.1,53.3L54.8,53.1L54.7,53.0L54.7,52.9L54.7,52.8L54.6,52.7L54.3,52.6L54.1,52.5L54.1,52.3L54.0,52.2L54.0,52.4L53.9,52.5L53.8,52.4L53.6,52.3L53.5,52.2L53.5,52.0L53.6,51.8L53.4,51.8L53.5,51.7L53.4,51.5L53.1,51.2L53.0,51.1L52.7,50.9L52.4,50.6L52.5,50.5L52.6,50.6L52.6,50.6L52.5,50.4L52.4,50.4L52.3,50.5L52.0,50.5L51.8,50.4L51.5,50.3L51.2,50.3L51.1,50.2L50.8,50.1L50.4,50.1L50.2,49.9L49.9,49.7L49.2,49.1L48.9,48.9L48.5,48.8L48.2,48.8L47.7,49.0L47.4,49.1L47.0,48.9L46.6,48.8L46.1,48.6L45.7,48.5L45.0,48.2L44.5,48.0L44.4,47.8L44.1,47.8L43.5,47.6L43.3,47.3L42.7,47.0L42.4,46.7L42.3,46.4L42.4,46.3L42.4,46.2L42.5,46.0L42.5,45.8L42.3,45.6L42.3,45.3L42.1,45.1L41.6,44.5L41.0,44.1L40.7,43.7L40.3,43.5L40.2,43.3L40.2,43.0L40.0,42.9L39.6,42.6L39.5,42.2L39.2,42.1L38.9,41.8L38.6,41.6L38.6,41.4L38.3,41.0L38.1,40.5L38.1,40.3L37.7,40.1L37.5,40.1L37.2,40.0L37.1,40.2L37.2,40.5L37.2,40.9L37.4,41.1L37.8,41.5L37.9,41.6L38.0,41.7L38.1,41.9L38.2,41.9L38.3,42.2L38.5,42.4L38.6,42.6L38.9,42.9L39.1,43.4L39.3,43.6L39.4,43.9L39.5,44.2L39.8,44.2L40.0,44.5L40.2,44.7L40.2,44.8L39.9,45.0L39.8,45.0L39.7,44.7L39.3,44.4L38.9,44.1L38.6,44.0L38.6,43.5L38.6,43.2L38.3,43.1L37.9,42.8L37.8,42.9L37.7,42.7L37.3,42.6L37.0,42.3L37.0,42.2L37.3,42.3L37.5,42.0L37.5,41.8L37.1,41.4L36.7,41.2L36.5,40.9L36.3,40.5L36.1,40.1L35.8,39.6L35.7,39.3L35.4,38.9L35.1,38.9L35.0,38.7L34.7,38.7L34.5,38.5L34.0,38.5L33.9,38.4L33.8,38.1L33.2,37.5L32.8,36.7L32.8,36.6L32.5,36.4L32.1,35.9L32.0,35.5L31.7,35.2L31.9,34.7L31.8,34.2L31.7,33.8L31.9,33.3L31.9,32.7L32.0,32.2L31.9,31.5L31.7,31.0L31.6,30.7L31.6,30.6L32.4,30.8L32.7,31.3L32.9,31.2L32.8,30.7L32.6,30.3L32.5,30.3L31.4,29.7L31.0,29.5L30.0,29.2L29.7,28.7L29.8,28.4L29.1,28.2L29.0,27.7L28.3,27.3L28.3,27.0L28.3,27.0L28.0,26.8L27.5,26.6L27.3,26.1L26.6,25.7L26.3,25.1L25.7,25.1L24.8,25.1L24.2,24.9L23.0,24.3L22.5,24.2L21.5,24.0L20.7,24.1L19.6,23.8L18.9,23.6L18.3,23.7L18.4,24.1L18.1,24.1L17.4,24.2L16.9,24.4L16.3,24.5L16.2,24.2L16.5,23.7L17.1,23.5L16.9,23.3L16.2,23.7L15.8,24.0L15.0,24.4L15.4,24.7L14.9,25.1L14.3,25.3L13.7,25.5L13.6,25.8L12.7,26.1L12.5,26.3L11.9,26.6L11.5,26.5L11.0,26.7L10.4,26.9L9.9,27.1L9.0,27.2L8.9,27.1L9.5,26.9L10.0,26.7L10.6,26.4L11.3,26.3L11.6,26.1L12.4,25.7L12.5,25.6L12.9,25.4L13.0,25.0L13.3,24.7L12.7,24.8L12.5,24.8L12.2,25.0L11.8,24.7L11.7,24.9L11.4,24.6L10.9,24.8L10.5,24.8L10.5,24.5L10.6,24.3L10.2,24.1L9.5,24.2L9.0,23.9L8.6,23.8L8.6,23.5L8.2,23.2L8.4,22.9L8.9,22.6L9.1,22.3L9.5,22.3L9.9,22.3L10.4,22.1L10.8,22.1L11.2,21.9L11.1,21.7L10.8,21.6L11.2,21.4L10.9,21.4L10.3,21.5L10.1,21.6L9.6,21.5L8.9,21.6L8.0,21.4L7.8,21.2L7.1,20.9L7.9,20.6L9.1,20.4L9.6,20.4L9.5,20.6L10.7,20.6L10.2,20.3L9.6,20.1L9.2,19.8L8.6,19.5L7.8,19.4L8.2,19.1L9.2,19.0L9.9,18.8L10.0,18.5L10.6,18.2L11.1,18.2L12.2,17.9L12.7,18.0L13.6,17.7L14.4,17.8L14.8,18.0L15.1,17.9L16.0,18.0L16.0,18.1L16.9,18.2L17.4,18.1L18.6,18.3L19.7,18.4L20.2,18.4L20.9,18.3L21.8,18.5L22.4,18.6L22.4,18.6L23.4,18.7L24.3,19.0L24.9,19.0L25.4,18.8L26.1,18.6L26.9,18.7L27.8,18.5L28.7,18.3L29.1,18.6L29.5,18.4L29.6,18.2L30.0,18.2L31.0,18.7L31.7,18.3L31.8,18.8L32.5,18.7L32.7,18.5L33.4,18.5L34.2,18.8L35.6,19.0L36.3,19.1L36.9,19.0L37.7,19.3L36.9,19.6L37.9,19.7L39.4,19.7L39.9,19.6L40.5,19.9L41.1,19.6L40.5,19.4L40.9,19.2L41.6,19.2L42.0,19.1L42.5,19.2L43.0,19.5L43.7,19.5L44.7,19.8L45.5,19.7L46.4,19.7L46.3,19.3L46.8,19.2L47.7,19.4L47.7,20.0L48.0,19.5L48.5,19.5L48.7,19.0L48.1,18.6L47.5,18.4L47.5,17.8L48.2,17.3L48.9,17.4L49.5,17.7L50.3,18.3L49.8,18.6L50.8,18.7L50.8,19.3L51.6,18.8L52.2,19.2L52.1,19.6L52.6,20.0L53.2,19.6L53.6,19.1L53.7,18.5L54.5,18.5L55.3,18.6L56.0,18.9L56.1,19.2L55.7,19.5L56.1,19.8L56.0,20.1L54.9,20.5L54.1,20.5L53.5,20.4L53.3,20.7L52.8,21.1L52.6,21.4L52.0,21.8L51.2,21.8L50.7,22.0L50.7,22.4L50.0,22.5L49.3,22.9L48.7,23.6L48.5,24.0L48.5,24.7L49.3,24.8L49.6,25.3L49.8,25.7L50.6,25.6L51.7,25.8L52.2,26.1L52.6,26.3L53.3,26.5L53.9,26.7L54.9,26.7L55.5,26.8L55.4,27.3L55.6,27.9L56.0,28.5L56.8,29.0L57.3,28.8L57.6,28.3L57.3,27.4L56.9,27.1L57.8,26.8L58.4,26.4L58.7,26.0L58.7,25.6L58.3,25.2L57.6,24.7L58.3,24.1L58.0,23.6L57.8,22.8L58.2,22.6L59.2,22.8L59.8,22.8L60.2,22.7L60.8,22.9L61.5,23.2L61.6,23.4L62.6,23.5L62.6,23.9L62.8,24.7L63.3,24.7L63.7,25.1L64.5,24.8L65.1,24.1L65.5,23.9L65.9,24.4L66.6,25.1L67.3,25.8L67.0,26.1L67.8,26.4L68.3,26.8L69.2,26.9L69.6,27.1L69.8,27.6L70.2,27.6L70.4,27.9L70.5,28.5L70.1,28.7L69.7,28.9L68.7,29.1L68.0,29.6L67.1,29.7L65.9,29.5L65.0,29.5L64.4,29.6L64.0,30.0L63.2,30.2L62.4,31.0L61.8,31.5L62.3,31.4L63.2,30.7L64.4,30.2L65.2,30.1L65.7,30.4L65.2,30.8L65.3,31.4L65.5,31.8L66.3,32.1L67.2,32.0L67.8,31.4L67.8,31.8L68.2,32.0L67.5,32.4L66.2,32.7L65.7,32.9L65.0,33.3L64.6,33.3L64.6,32.8L65.6,32.4L64.6,32.4L64.0,32.4L64.1,32.6L63.5,32.9L62.9,33.1L62.3,33.3L62.0,33.6L61.9,33.7L61.9,34.0L62.1,34.3L62.4,34.3L62.3,34.1L62.5,34.3L62.4,34.4L62.0,34.5L61.8,34.5L61.4,34.6L61.1,34.6L60.8,34.7L60.3,34.8L61.1,34.7L61.3,34.8L60.5,35.0L60.2,35.0L60.2,34.9L60.0,35.1L60.2,35.1L60.1,35.5L59.6,35.9L59.6,35.8L59.5,35.8L59.3,35.6L59.4,35.9L59.5,36.0L59.6,36.2L59.4,36.5L59.1,36.9L59.0,36.9L59.2,36.5L58.9,36.3L58.8,35.8L58.7,36.1L58.8,36.4L58.5,36.3L58.9,36.5L58.9,37.1L59.0,37.1L59.1,37.3L59.2,37.9L58.8,38.3L58.2,38.4L57.9,38.8L57.6,38.8L57.3,39.0L57.2,39.2L56.6,39.6L56.3,39.8L56.0,40.2L55.9,40.6L56.0,41.0L56.2,41.4L56.5,41.8L56.5,42.1L56.7,42.7L56.7,43.1L56.7,43.3L56.6,43.7L56.4,43.8L56.1,43.7L56.0,43.4L55.8,43.3L55.5,42.8L55.2,42.4L55.2,42.2L55.3,41.8L55.1,41.5L54.7,41.0L54.5,40.9L53.9,41.2L53.8,41.2L53.5,40.9L53.2,40.8L52.5,40.8L52.0,40.8L51.6,40.8L51.4,40.9L51.5,41.0L51.4,41.3L51.6,41.4L51.5,41.5L51.3,41.4L51.0,41.5L50.6,41.5L50.2,41.2L49.7,41.2L49.3,41.1L49.0,41.1L48.5,41.3L48.0,41.7L47.4,41.9L47.1,42.2L47.0,42.5L47.0,42.9L47.0,43.1L47.1,43.3L46.9,43.3L47.1,43.3Z M29.7,29.7L29.4,29.4L29.5,29.3L30.1,29.4L30.4,29.5L31.0,29.5L31.2,29.7L31.4,30.0L32.0,30.2L32.2,30.5L31.9,30.6L31.0,30.4L30.9,30.2L30.3,30.0L30.2,29.8L29.7,29.7Z M26.8,27.8L26.7,27.5L26.8,27.4L27.0,27.4L27.6,27.4L27.4,28.0L27.9,28.5L27.7,28.5L27.3,28.2L27.1,28.0L26.8,27.8Z M14.7,25.5L15.2,25.3L15.5,25.2L15.8,25.3L16.1,25.4L15.6,25.7L15.0,25.9L14.7,25.8L14.7,25.5Z M8.0,23.9L8.4,23.9L8.5,24.1L8.2,24.2L7.8,24.1L7.4,23.9L8.0,23.9Z M6.3,22.4L5.8,22.3L5.6,22.2L5.1,22.2L5.0,22.1L5.0,21.9L5.4,22.0L5.7,22.0L6.2,22.1L6.7,22.2L6.7,22.3L6.3,22.4Z M46.1,18.6L46.5,18.3L47.1,18.5L47.4,18.6L47.6,18.7L47.9,18.9L47.6,19.1L46.8,19.0L46.4,19.0L45.6,18.8L46.1,18.6Z M44.9,18.7L43.9,18.7L44.3,18.9L44.1,19.1L43.1,19.0L42.1,18.9L41.5,18.9L40.4,19.1L39.0,19.2L38.0,19.3L37.7,19.0L36.9,18.8L36.4,18.9L35.7,18.4L36.1,18.4L37.0,18.3L37.7,18.3L38.5,18.2L37.4,18.1L36.2,18.1L35.4,18.1L35.1,17.9L36.4,17.7L35.5,17.7L34.5,17.5L35.0,17.1L35.4,16.9L36.9,16.6L37.5,16.7L37.2,16.9L38.5,16.8L39.3,17.0L39.9,16.8L40.4,16.9L40.9,17.5L41.2,17.3L40.8,16.7L41.2,16.6L41.8,16.7L42.4,16.9L42.8,17.5L43.0,17.9L43.9,18.1L44.9,18.4L44.9,18.7Z M46.6,16.7L47.4,17.0L47.3,17.5L46.4,17.7L45.9,17.7L45.5,17.4L44.1,17.0L44.1,16.8L45.2,16.9L44.6,16.5L45.3,16.3L46.0,16.4L47.0,16.3L47.1,16.5L46.6,16.7Z M33.9,17.4L33.9,17.6L32.5,17.9L32.2,17.7L30.9,17.4L31.1,17.1L31.5,16.7L32.0,16.4L31.4,16.0L33.3,15.9L34.1,16.0L35.6,16.1L36.1,16.2L36.7,16.5L36.0,16.6L34.6,17.0L33.9,17.4Z M43.0,16.5L42.5,16.9L41.6,16.5L41.8,16.4L42.5,16.4L43.0,16.5Z M38.6,15.9L37.7,15.9L37.7,15.8L38.8,15.5L36.3,15.6L35.5,15.5L36.3,14.9L36.8,14.8L38.4,15.0L39.4,15.3L40.4,15.3L39.6,14.8L40.1,14.6L40.7,14.7L40.9,14.9L41.1,15.1L41.6,15.0L42.2,15.1L42.3,15.3L41.9,15.6L40.0,15.7L38.6,15.9Z M45.0,15.2L44.1,15.3L44.0,14.9L44.6,14.9L45.5,14.7L46.3,14.7L46.3,14.6L46.8,14.9L46.8,15.2L46.5,15.6L45.6,15.7L45.0,15.6L45.0,15.2Z M36.3,14.5L35.8,14.7L35.3,14.8L34.3,15.0L33.4,15.1L32.6,15.0L32.6,15.0L33.6,14.6L34.7,14.2L35.6,14.2L36.4,14.1L36.3,14.5Z M39.1,13.8L39.9,13.9L39.7,14.1L38.7,14.2L37.9,14.1L38.3,13.9L39.1,13.8Z M46.3,13.4L47.0,13.4L47.3,13.5L48.0,13.7L47.8,13.9L47.0,14.0L46.5,13.9L46.3,13.7L46.3,13.4Z M43.8,13.7L42.6,13.7L43.1,13.5L42.4,13.4L42.4,13.2L43.5,13.3L45.0,13.5L45.5,13.7L45.7,14.0L44.8,13.9L43.8,13.7Z M39.3,13.5L40.0,13.6L39.4,13.7L38.4,13.7L38.4,13.6L39.0,13.4L39.3,13.5Z M58.0,47.8L57.7,47.6L57.8,47.5L58.0,47.5L58.1,47.5L58.5,47.5L58.8,47.7L58.9,47.8L58.5,47.8L58.3,47.9L58.0,47.8Z M58.4,45.7L58.7,45.9L58.9,45.9L59.3,46.1L59.2,46.2L59.6,46.2L60.1,46.5L60.0,46.6L59.6,46.7L59.2,46.7L58.8,46.7L58.0,46.7L58.4,46.4L58.2,46.2L57.8,46.2L57.6,46.0L57.5,45.7L57.2,45.7L56.6,45.6L56.5,45.5L55.7,45.4L55.5,45.3L55.8,45.1L55.2,45.1L54.8,45.4L54.6,45.4L54.5,45.5L54.2,45.6L54.0,45.6L54.3,45.4L54.4,45.2L54.6,45.1L54.9,44.9L55.4,44.9L55.5,44.8L56.0,44.9L56.4,44.9L56.9,45.1L57.2,45.3L57.7,45.2L57.9,45.3L58.4,45.7Z M57.8,43.7L58.0,43.7L58.2,44.2L58.2,44.5L58.0,44.5L57.9,44.2L57.7,44.0L57.8,43.7Z M58.0,42.7L58.5,42.9L58.4,43.3L58.3,43.2L58.3,42.9L58.0,42.7L58.0,42.7Z M57.6,42.8L58.0,42.8L58.0,42.9L57.4,43.0L57.3,42.8L57.6,42.8Z M56.6,22.9L56.6,22.9L56.8,22.7L57.0,22.7L57.2,22.8L57.0,23.1L56.7,23.1L56.6,22.9Z M54.5,22.7L54.9,22.4L55.7,22.4L55.7,22.5L55.0,22.8L54.6,22.8L54.5,22.7Z M56.2,22.1L55.3,22.0L55.0,21.8L54.5,22.1L53.7,22.3L53.5,22.0L52.7,22.1L53.2,21.8L53.3,21.3L53.4,20.8L53.9,20.9L54.0,21.1L54.2,21.0L54.6,21.2L55.2,21.4L55.8,21.6L55.9,21.8L56.3,21.8L56.7,22.0L56.2,22.1Z M59.5,19.5L59.5,19.8L59.5,19.9L59.1,20.0L58.5,20.1L58.3,19.8L58.6,19.5L59.1,19.4L59.5,19.5Z M47.7,16.8L47.7,16.5L48.0,16.2L48.6,16.1L49.8,16.1L50.8,16.3L50.0,16.8L49.3,16.9L48.7,17.3L48.1,17.3L47.7,16.8Z M58.3,16.8L57.7,16.8L57.1,16.9L56.9,16.8L56.3,16.5L56.3,16.3L56.6,16.3L57.9,16.4L58.8,16.7L58.9,16.8L58.3,16.8Z M48.9,15.4L49.1,15.6L48.8,15.8L48.0,15.8L47.3,15.6L47.6,15.4L48.4,15.2L48.9,15.4Z M47.8,14.8L47.1,14.6L47.3,14.4L48.5,14.4L49.1,14.6L50.2,14.6L50.7,14.8L50.6,15.0L51.2,15.1L51.6,15.3L52.3,15.3L53.2,15.3L54.1,15.2L55.2,15.2L56.1,15.2L56.7,15.4L56.9,15.7L56.5,15.8L55.7,15.9L54.9,15.9L53.3,15.9L52.2,15.9L51.3,15.9L49.8,15.7L49.6,15.4L49.5,15.1L48.9,14.9L47.8,14.8Z M49.0,14.2L48.7,14.2L47.6,14.2L47.5,14.0L48.6,14.0L49.0,14.1L49.0,14.2Z M55.0,11.5L55.4,11.2L56.1,11.1L57.2,11.0L58.9,11.0L59.2,11.1L60.8,11.0L62.0,11.0L63.3,11.0L64.8,11.1L66.0,11.2L67.0,11.3L67.0,11.5L65.6,11.7L64.2,11.8L63.7,11.9L65.0,11.9L63.6,12.3L62.7,12.4L61.7,12.9L60.6,13.0L60.2,13.1L58.5,13.2L59.3,13.2L58.9,13.3L59.4,13.6L58.8,13.8L58.0,14.0L57.7,14.2L56.9,14.4L57.0,14.5L57.9,14.5L58.0,14.6L56.5,14.9L55.0,14.8L53.3,14.9L52.5,14.8L51.4,14.8L51.3,14.5L52.4,14.4L52.1,14.0L52.5,13.9L54.0,14.2L53.2,13.8L52.3,13.7L52.7,13.5L53.7,13.4L53.9,13.2L53.1,12.9L52.9,12.6L54.4,12.7L54.8,12.7L55.7,12.5L54.5,12.5L52.5,12.5L51.5,12.3L51.0,12.1L50.4,11.9L50.2,11.7L51.1,11.6L51.7,11.6L52.8,11.5L53.7,11.3L54.4,11.3L55.0,11.5Z M51.4,12.5L52.4,12.6L52.8,13.0L53.5,13.2L52.7,13.3L51.7,13.8L50.7,13.8L49.5,13.7L48.9,13.5L48.9,13.3L49.4,13.1L48.3,13.1L47.7,13.0L47.3,12.7L47.7,12.4L48.1,12.3L48.7,12.2L48.5,12.1L49.8,12.1L50.5,12.4L51.4,12.5Z M62.4,89.0L61.8,89.0L61.1,88.6L60.6,88.3L59.8,87.7L60.2,87.8L61.0,88.2L61.8,88.4L62.1,88.1L62.3,87.8L62.8,87.5L63.2,87.6L63.4,87.9L63.7,88.3L64.4,88.6L65.2,88.8L64.9,89.0L64.4,89.1L64.1,88.9L63.9,89.1L63.5,89.3L63.2,89.3L62.8,89.2L62.4,89.0Z M68.1,87.1L67.7,87.4L67.4,87.1L68.0,86.8L68.5,86.9L68.9,86.7L69.3,87.0L69.1,87.2L68.4,87.3L68.1,87.1Z M67.1,52.1L67.1,51.8L67.4,51.8L67.5,51.8L67.5,52.2L67.0,52.3L66.9,52.2L67.1,52.1Z M64.0,47.5L64.0,47.5L64.5,47.5L64.8,47.5L64.9,47.6L64.7,47.8L64.3,47.8L64.0,47.8L64.0,47.5Z M62.8,47.2L63.1,47.2L63.4,47.4L63.1,47.6L62.9,47.5L62.6,47.5L62.4,47.5L62.3,47.6L62.1,47.6L62.0,47.5L61.8,47.6L61.6,48.0L61.5,47.9L61.4,47.7L61.1,47.6L60.8,47.7L60.5,47.6L60.2,47.7L59.9,47.6L59.9,47.4L60.5,47.5L60.9,47.5L61.1,47.4L60.8,47.1L60.8,46.9L60.5,46.8L60.6,46.7L61.0,46.7L61.4,46.8L61.5,46.7L62.0,46.7L62.3,46.8L62.4,46.8L62.5,47.0L62.8,47.0L62.8,47.2Z M65.7,31.7L65.6,31.6L65.8,31.4L66.0,31.7L66.4,31.7L66.9,31.7L66.6,31.9L66.4,32.0L65.7,31.7Z M70.9,30.1L71.2,30.0L71.7,30.1L71.6,30.5L71.9,30.4L72.0,30.7L72.2,31.1L72.0,31.6L71.7,31.6L71.3,31.5L71.5,31.0L71.3,31.0L70.6,31.5L70.3,31.4L70.7,31.2L70.2,31.0L69.6,31.1L68.5,31.1L68.4,30.9L68.7,30.7L68.5,30.5L69.0,30.2L69.5,29.3L69.9,29.0L70.4,28.8L70.6,28.8L70.5,29.0L70.2,29.3L69.9,29.8L70.2,29.6L70.6,29.7L70.4,29.9L70.9,30.1Z M66.0,30.0L65.5,29.8L65.7,29.7L66.4,29.9L67.0,30.1L67.0,30.2L66.8,30.2L66.0,30.0Z M63.1,18.1L63.6,18.4L64.1,18.9L63.1,19.1L64.4,19.5L65.3,19.6L66.1,20.2L67.0,20.2L66.8,20.6L65.8,21.2L65.1,21.0L64.3,20.5L63.5,20.5L63.5,20.9L64.0,21.2L64.8,21.4L65.0,21.6L65.4,22.2L65.2,22.6L64.5,22.4L63.1,22.0L63.9,22.4L64.5,22.8L64.6,23.0L63.0,22.8L61.8,22.4L61.1,22.2L61.3,22.0L60.5,21.7L59.7,21.4L59.7,21.6L58.1,21.7L57.6,21.5L58.0,21.1L59.0,21.1L60.2,21.0L60.0,20.8L60.2,20.5L60.9,20.0L60.8,19.7L60.5,19.5L59.7,19.2L58.5,19.1L58.9,18.9L58.3,18.6L57.8,18.5L57.4,18.3L57.1,18.5L56.0,18.6L54.0,18.4L52.8,18.3L51.9,18.2L51.4,18.0L52.0,17.7L51.2,17.7L51.0,17.2L51.4,16.7L52.0,16.4L53.5,16.3L53.1,16.6L53.5,17.0L54.0,16.5L55.5,16.3L56.4,16.9L56.3,17.3L57.5,17.1L58.0,16.9L59.2,17.2L60.0,17.4L60.1,17.7L61.1,17.5L61.7,17.9L63.1,18.1Z M89.1,11.5L86.9,11.5L83.9,11.5L84.2,11.6L86.2,11.6L87.9,11.8L89.0,11.6L89.4,11.8L88.8,12.1L90.3,11.9L93.0,11.7L94.7,11.8L95.0,12.1L92.7,12.5L92.4,12.6L90.6,12.7L91.9,12.7L91.2,13.1L90.8,13.5L90.8,14.1L91.5,14.5L90.6,14.5L89.7,14.7L90.7,15.0L90.8,15.5L90.2,15.5L91.0,16.0L89.7,16.0L90.4,16.3L90.2,16.5L89.4,16.6L88.6,16.6L89.3,16.9L89.3,17.2L88.2,17.0L87.9,17.1L88.7,17.3L89.4,17.6L89.6,18.1L88.6,18.2L88.2,17.9L87.5,17.6L87.7,18.0L87.0,18.3L88.5,18.3L89.3,18.4L87.8,18.8L86.2,19.3L84.6,19.5L84.0,19.5L83.4,19.7L82.6,20.3L81.4,20.7L81.0,20.7L80.2,20.9L79.4,21.0L78.9,21.3L78.9,21.7L78.7,22.1L77.7,22.6L78.0,23.0L77.7,23.5L77.4,24.0L76.6,24.0L75.8,23.6L74.7,23.6L74.1,23.3L73.7,22.7L72.8,22.0L72.5,21.7L72.4,21.1L71.6,20.6L71.8,20.2L71.4,20.0L72.0,19.4L72.9,19.1L73.1,18.9L73.2,18.5L72.6,18.7L72.2,18.8L71.7,18.8L71.0,18.6L71.0,18.3L71.2,18.0L71.8,18.0L72.9,18.1L71.9,17.7L71.4,17.6L70.9,17.6L70.4,17.5L71.0,17.0L70.7,16.8L70.2,16.4L69.6,15.8L68.8,15.6L68.8,15.3L67.3,15.0L66.1,14.9L64.6,15.0L63.3,15.0L62.6,14.8L61.6,14.5L63.1,14.3L64.2,14.3L61.8,14.1L60.5,13.9L60.6,13.7L62.8,13.4L64.8,13.1L65.0,12.9L63.5,12.7L64.0,12.5L66.0,12.1L66.8,12.0L66.6,11.8L67.9,11.6L69.6,11.6L71.4,11.5L72.0,11.7L73.5,11.4L74.8,11.6L75.6,11.7L76.8,11.9L75.4,11.5L75.5,11.3L77.4,11.0L79.4,11.0L80.1,10.8L82.1,10.7L86.6,10.8L90.1,11.2L89.1,11.5Z"/>
</svg>
