<!-- Asia silhouette — Natural Earth 110m, CC BY-SA. Western Asia excluded (shown in Middle East tile). fill="currentColor". -->
<svg xmlns="http://www.w3.org/2000/svg" viewBox="0 0 100 100" fill="currentColor" stroke="none" aria-hidden="true">
  <path d="M59.0,74.4L58.9,75.8L57.9,75.8L57.1,75.0L56.0,74.3L55.6,73.7L54.9,73.0L54.4,72.3L53.8,71.0L53.0,70.3L52.7,69.5L52.4,68.8L51.5,68.2L51.1,67.4L50.4,66.9L49.4,65.9L49.4,65.5L49.9,65.5L51.3,65.7L52.1,66.6L52.9,67.2L53.4,67.6L54.2,68.5L55.1,68.6L55.9,69.2L56.4,69.9L57.1,70.4L56.8,71.1L57.3,71.4L57.6,71.4L57.8,72.1L58.1,72.6L58.7,72.7L59.2,73.2L59.0,74.4Z M56.8,66.7L56.7,67.1L56.7,67.4L56.8,67.9L57.1,68.2L57.5,69.0L57.5,69.3L56.8,69.3L56.0,68.7L54.9,67.9L54.8,67.5L54.3,66.9L54.1,66.1L53.8,65.6L53.9,65.0L53.7,64.6L53.3,64.2L53.2,63.8L52.7,63.3L52.3,62.8L52.1,63.4L51.9,62.9L52.0,62.3L52.3,61.4L52.2,60.8L52.5,60.1L52.2,59.5L52.3,58.5L51.9,58.1L51.6,57.0L51.4,55.8L51.1,55.1L50.5,55.5L49.4,56.2L48.9,56.1L48.4,55.9L48.7,54.8L48.5,53.9L47.8,52.9L47.9,52.5L47.3,52.4L46.7,51.7L46.4,51.2L46.4,50.7L46.2,50.3L45.8,49.8L45.0,49.7L45.1,50.1L44.8,50.6L44.4,50.4L44.3,50.6L44.0,50.5L43.7,50.4L43.5,50.7L42.9,50.7L41.8,50.9L41.9,51.6L41.4,52.1L40.1,52.8L39.0,53.8L38.4,54.4L37.5,55.0L37.5,55.4L37.0,55.6L36.2,56.0L35.8,56.0L35.5,56.7L35.7,57.9L35.7,58.6L35.3,59.5L35.3,61.0L34.9,61.1L34.4,61.8L34.7,62.1L33.9,62.3L33.6,63.0L33.2,63.2L32.4,62.4L31.9,61.1L31.6,60.2L31.3,59.7L30.8,58.9L30.6,57.7L30.4,57.2L29.6,55.9L29.2,54.2L28.9,53.0L28.9,51.9L28.8,51.1L27.4,51.6L26.8,51.5L25.6,50.4L26.1,50.1L25.8,49.7L24.7,48.9L25.3,48.3L27.3,48.3L27.1,47.5L26.6,47.1L26.5,46.4L25.9,46.0L26.9,45.0L28.0,45.1L28.9,44.1L29.5,43.2L30.4,42.3L30.4,41.7L31.2,41.1L30.4,40.7L30.1,40.1L29.8,39.3L30.2,38.9L31.6,39.1L32.6,39.0L33.5,38.2L32.0,37.8L31.7,37.1L31.1,36.7L30.9,36.5L30.0,36.5L29.3,36.4L28.8,36.8L28.4,36.9L28.1,37.1L27.7,36.8L27.8,36.0L27.5,36.0L27.6,35.7L27.1,35.5L26.7,35.8L26.6,36.2L26.5,36.3L25.9,36.3L25.6,36.7L25.3,36.5L24.7,36.8L24.4,36.7L23.7,36.5L23.2,36.5L22.9,36.5L22.5,36.2L22.4,36.6L21.6,36.7L21.4,37.5L20.9,37.7L20.2,37.9L20.0,38.3L19.3,38.4L18.4,38.1L18.3,37.3L17.6,37.3L16.6,36.5L15.9,36.4L14.9,35.9L14.2,35.8L13.8,36.0L13.2,36.0L12.6,36.5L11.8,36.7L11.6,36.0L11.7,35.1L11.0,34.8L11.3,34.1L10.7,34.1L10.9,33.3L11.7,33.5L12.5,33.3L11.9,32.7L11.6,32.2L10.9,32.4L10.8,33.1L10.5,32.5L10.4,32.3L10.7,31.9L10.5,31.6L9.4,31.3L9.0,30.5L8.5,30.2L8.5,29.9L9.4,30.0L9.4,29.3L10.2,29.2L11.0,29.3L11.1,28.5L11.0,27.9L10.1,27.9L9.3,27.7L8.2,28.1L7.4,28.3L6.9,28.2L7.0,27.7L6.4,27.1L5.8,27.1L5.0,26.5L5.5,25.8L5.3,25.6L6.0,24.6L6.9,25.1L7.0,24.5L8.9,23.5L10.3,23.5L12.3,24.1L13.4,24.5L14.4,24.1L15.8,24.1L17.0,24.5L17.2,24.3L18.5,24.3L18.7,23.9L17.3,23.3L18.1,22.8L18.0,22.6L18.8,22.3L18.2,21.7L18.6,21.4L22.0,21.1L22.4,20.9L24.7,20.5L25.5,20.1L27.2,20.3L27.4,21.3L28.4,21.1L29.6,21.4L29.5,21.9L30.4,21.8L32.6,21.0L32.3,21.2L33.5,21.9L35.5,24.2L36.0,23.8L37.2,24.3L38.5,24.1L39.0,24.2L39.5,24.7L40.1,24.9L40.5,25.3L41.7,25.2L42.1,25.7L42.5,25.7L43.5,25.5L45.2,24.7L46.6,24.3L47.4,24.6L48.3,24.6L48.9,25.0L49.8,25.1L51.1,25.3L52.0,24.6L51.7,24.1L52.6,23.2L53.6,23.5L54.4,23.7L55.5,23.9L55.7,24.6L57.0,24.9L57.8,24.8L59.0,24.7L59.9,24.8L60.8,25.2L61.3,25.7L62.2,25.7L63.3,25.8L64.1,25.6L65.3,25.4L66.7,24.8L67.2,24.9L67.7,25.2L68.8,25.1L69.9,25.5L71.2,24.9L71.1,24.5L72.0,23.5L72.5,23.2L72.5,22.7L72.0,22.5L72.7,22.1L73.8,21.9L75.0,21.9L76.4,22.2L77.2,22.5L77.8,23.4L78.1,23.8L78.4,24.4L78.8,25.2L80.3,25.5L81.4,26.2L81.8,27.0L83.2,27.0L83.9,26.7L85.4,26.4L85.0,27.2L84.6,27.6L84.3,28.6L83.7,29.4L82.6,29.3L81.8,29.6L82.1,30.4L81.9,31.5L81.5,31.5L81.5,31.9L81.5,31.9L81.6,32.1L81.2,32.0L80.8,32.4L80.6,32.7L80.6,33.3L80.1,33.5L80.0,33.7L79.6,33.9L79.0,34.1L78.6,34.3L78.6,34.7L78.5,34.8L78.9,35.0L79.4,35.4L80.2,36.4L80.4,37.0L80.4,38.1L80.1,38.6L79.2,38.8L78.5,39.1L77.7,39.2L77.6,38.7L77.8,38.0L77.4,37.1L78.0,36.9L77.4,36.2L77.0,36.0L76.9,36.2L76.6,36.2L76.6,36.1L76.3,36.0L76.1,35.8L76.3,35.4L76.5,35.3L76.5,35.2L76.7,34.7L76.6,34.5L76.1,34.4L75.7,34.2L74.4,34.4L73.7,34.9L72.8,35.1L73.2,34.7L73.0,34.3L73.8,33.7L73.3,33.3L72.5,33.6L71.5,34.2L70.9,34.8L70.0,34.8L69.6,35.3L70.0,35.9L70.8,36.0L70.8,36.4L71.5,36.7L72.5,36.0L73.4,36.4L73.9,36.4L74.1,36.9L72.8,37.2L72.4,37.6L71.5,38.1L71.0,38.7L72.0,39.2L72.4,40.1L72.9,41.0L73.5,41.7L73.5,42.3L72.9,42.6L73.2,43.1L73.7,43.4L73.6,44.1L73.3,44.8L72.8,44.9L72.2,45.9L71.4,47.1L70.6,48.2L69.3,49.0L68.1,49.8L67.0,49.9L66.5,50.3L66.2,50.0L65.7,50.4L64.4,50.9L63.4,51.0L63.1,52.0L62.6,52.0L62.4,51.4L62.6,51.0L61.4,50.7L60.9,50.9L59.7,51.6L59.0,52.5L58.8,53.1L59.5,54.1L60.3,55.3L61.1,55.8L61.7,56.6L62.1,58.3L62.0,59.9L61.2,60.5L60.2,61.0L59.4,61.8L58.3,62.6L58.0,62.1L58.2,61.4L57.6,60.9L56.8,60.8L56.4,60.3L56.0,59.4L55.2,59.0L54.4,59.0L54.5,58.3L53.7,58.3L53.6,59.3L53.2,60.6L52.9,61.4L52.9,62.1L53.5,62.1L53.9,62.9L54.0,63.7L54.6,64.2L55.1,64.3L55.6,64.8L55.8,64.9L56.3,65.4L56.7,66.0L56.8,66.7Z M35.6,61.5L36.2,62.0L36.6,62.7L37.1,63.6L36.9,64.6L36.6,64.8L35.8,65.0L35.3,64.3L35.2,63.0L35.6,61.5Z M72.1,79.8L70.9,79.1L71.7,79.0L72.2,79.2L72.5,79.5L72.4,79.8L72.1,79.8Z M68.8,78.7L69.1,78.1L69.6,78.1L69.9,77.8L70.2,78.0L70.8,78.0L71.0,78.4L70.0,78.5L69.3,78.7L68.8,78.7Z M71.7,78.1L72.4,77.9L73.0,78.2L73.6,78.1L74.4,77.8L74.3,78.3L72.9,78.6L71.7,78.5L71.7,78.1Z M66.8,77.5L67.9,78.1L66.9,78.4L65.9,78.0L65.0,78.1L64.1,78.0L63.2,77.8L62.2,77.5L61.5,77.4L61.1,77.5L59.5,77.1L59.3,76.7L58.5,76.7L59.1,75.8L60.2,75.9L61.0,76.2L61.3,76.3L61.5,76.6L63.2,76.7L63.4,76.3L65.1,76.8L65.4,77.3L66.8,77.5Z M75.1,70.2L74.3,70.1L72.8,70.1L72.0,70.2L71.8,70.9L72.6,71.7L73.1,71.3L74.8,71.0L74.8,71.4L74.4,71.3L74.0,71.8L73.2,72.2L74.0,73.3L73.9,73.7L74.7,74.7L74.7,75.3L74.2,75.6L73.8,75.2L74.3,74.5L73.4,74.9L73.1,74.6L73.3,74.3L72.6,73.7L72.7,72.8L72.1,73.1L72.2,74.2L72.2,75.5L71.6,75.6L71.2,75.3L71.5,74.5L71.3,73.6L71.0,73.6L70.7,73.0L71.1,72.4L71.2,71.7L71.6,70.3L71.8,69.9L72.6,69.3L73.3,69.5L74.5,69.7L75.5,69.6L76.4,69.0L76.6,69.2L75.8,70.1L75.1,70.2Z M69.5,70.4L69.5,71.2L68.7,71.8L68.6,72.7L68.3,74.1L68.2,73.8L67.1,74.2L66.8,73.6L66.1,73.6L65.7,73.3L64.6,73.6L64.3,73.2L63.7,73.2L62.9,73.1L62.8,71.9L62.3,71.6L61.9,70.9L61.8,70.1L61.9,69.2L62.4,68.6L63.1,68.9L63.8,68.8L64.0,68.0L64.3,67.8L65.4,67.6L66.1,66.9L66.5,66.3L66.9,66.0L67.7,65.5L68.4,64.9L68.8,64.2L69.2,64.2L69.7,64.6L69.7,65.0L70.3,65.3L71.1,65.5L71.0,65.9L70.4,65.9L70.5,66.4L69.9,66.7L69.4,67.5L70.0,68.4L69.9,68.8L70.9,69.6L69.8,69.7L69.5,70.4Z M71.5,60.9L70.9,61.4L70.4,62.0L69.2,62.8L69.7,62.2L70.3,61.7L70.9,61.0L71.4,60.1L71.5,60.9Z M75.4,61.1L75.1,61.4L74.8,62.0L74.5,62.3L74.0,61.6L74.1,61.4L74.4,61.1L74.5,60.6L75.0,60.5L74.8,61.1L75.5,60.2L75.4,61.1Z M74.2,60.7L73.6,61.0L73.6,60.5L73.6,60.1L73.5,59.6L74.1,59.9L74.6,59.9L74.6,60.3L74.2,60.7Z M72.1,58.2L72.9,58.3L73.2,58.6L72.9,59.4L72.6,58.9L72.1,58.2Z M73.2,56.7L73.4,57.4L73.8,57.5L74.3,57.4L75.4,57.9L75.3,58.4L75.6,58.6L75.5,59.1L74.8,58.6L74.5,58.1L74.2,58.5L73.6,57.9L72.8,58.1L72.4,57.9L72.4,57.5L72.7,57.3L72.4,57.0L72.3,57.4L71.9,56.9L71.7,56.5L71.7,55.6L72.1,55.9L72.2,54.5L72.4,53.6L73.0,53.6L73.6,53.9L73.8,53.7L73.9,53.9L73.8,54.3L74.1,54.9L73.8,55.7L73.3,56.0L73.2,56.7Z M63.6,52.6L63.2,53.0L63.0,53.5L62.2,53.9L61.5,53.6L61.5,52.9L61.9,52.4L62.9,52.2L63.4,52.2L63.6,52.6Z M72.4,48.2L73.2,47.5L73.6,47.7L73.4,48.3L72.9,49.7L72.5,50.5L72.0,49.7L71.9,49.1L72.4,48.2Z M76.3,78.5L76.4,78.3L77.2,78.1L77.8,78.1L78.1,78.0L78.5,78.1L78.1,78.3L77.2,78.7L76.4,79.0L75.8,79.7L75.0,79.9L74.9,79.8L75.0,79.4L75.4,78.9L76.3,78.5Z M85.2,76.1L84.7,76.7L84.6,76.0L84.8,75.7L85.0,75.4L85.2,75.7L85.2,76.1Z M87.8,78.1L88.2,77.4L88.8,77.1L88.5,76.1L88.1,75.3L86.3,74.6L85.6,74.5L84.2,73.7L83.9,74.1L83.6,74.2L83.4,73.9L83.4,73.5L82.7,73.0L83.7,72.7L84.3,72.7L84.2,72.5L82.9,72.5L82.5,71.9L81.7,71.8L81.4,71.3L82.6,71.1L83.0,70.8L84.5,71.2L84.6,71.5L84.9,73.0L85.8,73.5L86.6,72.5L87.6,72.0L88.4,72.0L89.2,72.3L89.9,72.6L90.9,72.8L90.9,75.8L90.9,78.7L90.1,78.0L89.2,77.8L88.9,78.1L87.8,78.1Z M77.4,73.7L77.2,73.3L78.2,73.3L78.4,73.6L78.0,73.9L77.4,73.7Z M79.6,73.6L79.0,73.5L79.2,73.0L80.3,73.0L81.3,73.3L81.6,74.0L80.9,73.6L80.1,73.5L79.6,73.6Z M79.0,70.7L79.4,71.2L79.2,71.3L78.8,70.7L78.5,69.5L78.7,68.8L79.0,68.5L79.1,69.0L79.6,69.1L79.7,69.4L79.6,70.2L79.2,70.1L79.0,70.7Z M77.0,65.0L76.7,65.4L75.6,64.9L75.4,64.2L75.7,63.8L75.1,63.3L74.8,63.7L74.4,63.7L73.7,64.2L73.5,63.9L73.9,63.2L74.5,62.9L75.0,62.6L75.3,63.0L76.0,62.7L76.1,62.3L76.8,62.3L76.7,61.6L77.4,62.0L77.5,62.5L77.6,62.8L77.7,63.4L77.7,63.9L77.4,64.8L77.1,63.8L76.7,64.3L77.0,65.0Z M76.2,61.2L76.1,60.6L75.8,60.6L75.7,60.0L76.2,60.1L76.2,59.7L75.7,59.0L76.5,59.1L76.8,59.4L77.1,60.4L76.3,60.2L76.4,60.5L76.6,61.0L76.2,61.2Z M84.7,40.3L84.3,40.0L83.9,40.2L83.6,40.7L83.0,40.5L83.0,40.1L83.5,39.5L84.1,39.6L84.4,39.2L85.1,39.4L85.2,39.7L84.7,40.3Z M89.0,39.0L87.4,39.0L86.1,40.1L85.5,39.7L85.5,39.0L83.9,39.2L82.8,39.7L81.8,39.7L82.7,40.3L82.1,41.9L81.5,42.3L81.1,41.9L81.3,41.1L80.7,40.8L80.3,40.2L81.2,39.9L81.7,39.4L82.6,38.9L83.3,38.3L85.1,38.0L86.0,38.2L87.0,36.6L87.6,37.0L88.9,36.1L89.4,35.7L90.0,34.6L89.9,33.6L90.2,33.0L91.2,32.9L91.7,34.1L91.7,34.9L90.8,35.8L90.9,36.7L90.5,37.4L90.7,37.9L90.2,38.5L89.0,39.0Z M81.6,32.1L81.6,32.1L81.6,32.1L81.6,32.1Z M90.9,32.7L89.9,32.7L89.8,31.8L90.2,31.1L91.2,31.0L91.5,29.8L91.8,29.1L92.8,30.0L93.5,30.3L94.2,30.5L94.8,30.1L95.0,31.2L93.7,31.4L92.9,32.3L91.4,31.7L90.9,32.7Z"/>
</svg>
