<!-- Europe silhouette — Natural Earth 110m, CC BY-SA.
     Russia excluded; clipped to [-25°W,34°N,45°E,75°N] to drop Azores/Canaries. -->
<svg xmlns="http://www.w3.org/2000/svg" viewBox="0 0 100 100" fill="currentColor" stroke="none" aria-hidden="true">
  <path d="M25.7,70.0L25.8,69.1L26.3,68.6L26.4,68.0L26.7,67.2L26.7,66.6L26.4,66.1L26.4,65.6L26.4,64.6L25.9,64.0L27.8,63.0L29.6,63.3L31.4,63.2L32.9,63.5L34.1,63.4L36.3,63.5L37.1,62.6L37.3,59.8L35.9,58.4L34.9,57.7L32.7,57.1L32.6,56.1L34.4,55.8L36.7,56.2L36.3,54.6L37.6,55.2L40.9,54.1L41.3,52.9L42.5,52.7L43.6,52.4L43.6,52.4L44.3,52.0L45.6,49.9L47.5,49.4L48.6,49.4L48.9,49.1L50.1,49.0L50.3,49.3L51.3,48.6L51.0,48.1L50.9,47.3L50.3,46.6L50.3,45.1L50.5,44.7L50.9,44.3L52.2,44.2L52.7,43.9L53.8,43.5L53.7,44.2L53.3,44.6L53.5,45.0L54.2,45.2L53.9,45.8L53.5,45.6L52.5,46.6L52.9,47.3L52.9,47.8L54.3,48.2L54.3,48.7L55.7,48.4L56.5,48.0L58.1,48.6L58.7,49.0L59.7,48.6L61.9,48.0L63.6,47.5L65.0,47.7L65.1,48.1L66.5,48.1L68.2,48.2L70.8,48.2L70.6,47.9L70.8,47.5L70.2,47.3L68.7,47.0L68.4,45.8L68.5,44.8L69.2,43.9L70.5,43.4L71.6,44.5L72.7,44.4L73.0,43.4L73.1,42.6L72.6,42.7L71.7,42.2L71.6,41.4L73.4,41.0L75.1,40.8L76.7,41.1L78.1,41.0L78.1,41.0L78.1,41.0L78.3,41.3L77.3,42.1L77.7,43.4L77.1,43.8L77.8,44.1L77.9,44.8L78.4,45.6L79.8,46.0L80.0,46.3L80.8,46.2L82.1,46.5L82.3,47.2L82.0,47.5L82.8,48.5L83.4,48.7L83.3,49.0L84.3,49.2L84.7,49.6L84.1,49.9L83.0,49.8L82.7,50.0L83.1,50.4L83.4,51.3L83.4,51.3L83.9,51.4L84.3,51.1L84.7,51.1L86.2,51.0L87.1,51.8L86.7,52.1L86.8,52.5L87.9,52.6L88.4,53.2L88.4,53.5L90.2,54.0L91.2,53.7L92.1,54.4L92.9,54.4L95.0,54.8L95.0,55.2L94.4,56.0L94.7,56.7L94.5,57.2L93.2,57.3L92.4,57.7L92.4,58.3L91.3,58.4L90.4,58.9L89.1,59.0L87.8,59.5L87.9,60.2L87.7,60.2L87.5,59.9L87.1,59.8L86.1,59.5L85.7,59.9L85.5,59.7L83.4,59.4L83.3,58.9L82.0,59.0L81.4,59.8L80.4,60.8L80.4,61.2L79.7,61.5L79.3,61.4L78.9,63.1L78.2,63.6L77.7,64.6L78.1,65.4L76.9,65.2L75.5,65.7L76.2,66.1L75.7,66.9L75.4,67.1L74.6,67.0L73.8,66.9L72.1,67.3L73.1,68.1L72.4,68.3L71.6,68.3L70.9,67.6L70.6,67.9L70.9,68.7L71.6,69.4L71.1,69.7L71.9,70.3L72.6,70.7L72.6,71.5L71.3,71.1L71.7,71.9L70.8,72.0L71.3,73.2L70.4,73.3L69.3,72.6L68.7,71.5L68.5,70.6L68.0,70.0L67.2,69.2L67.1,68.8L66.9,68.7L66.9,68.4L66.1,67.9L66.0,67.2L66.1,66.3L66.3,65.8L66.1,65.6L66.1,65.6L65.8,65.5L65.4,65.1L64.8,64.8L64.8,64.8L63.5,64.3L62.6,63.8L61.4,63.3L60.2,62.3L60.5,62.2L59.8,61.6L59.8,61.1L58.9,60.9L58.5,61.5L58.1,61.1L58.1,60.6L58.2,60.6L58.5,60.4L57.4,60.2L56.2,60.7L56.3,61.4L56.1,61.8L56.6,62.5L57.9,63.2L58.6,64.4L60.2,65.5L61.2,65.5L61.6,65.8L61.2,66.1L62.4,66.6L63.5,67.0L64.7,67.7L64.8,68.0L64.6,68.5L63.8,67.9L62.6,67.6L62.0,68.5L63.0,69.0L62.8,69.8L62.2,69.9L61.5,71.1L60.9,71.2L60.9,70.7L61.2,70.0L61.5,69.7L61.0,68.9L60.5,68.2L60.0,68.0L59.5,67.4L58.6,67.1L58.0,66.6L57.0,66.5L55.9,65.9L54.6,64.9L53.7,64.1L53.2,62.8L52.6,62.6L51.4,62.1L50.8,62.3L50.0,63.0L49.4,63.1L48.1,63.9L45.4,63.5L43.3,63.9L43.2,64.8L43.2,65.6L41.9,66.5L40.1,66.8L40.0,67.3L39.1,68.1L38.6,69.2L39.1,70.0L38.3,70.6L38.0,71.5L37.0,71.8L36.0,72.9L34.2,72.9L32.9,72.9L32.0,73.4L31.5,73.9L30.8,73.8L30.3,73.3L29.9,72.5L28.6,72.3L28.0,72.7L27.3,72.5L26.6,72.6L26.8,71.5L26.6,70.7L26.0,70.5L25.7,70.0Z M50.8,69.4L50.7,67.7L50.4,66.9L51.2,67.0L51.9,66.5L52.7,67.5L52.5,69.4L51.9,69.3L51.3,69.8L50.8,69.4Z M52.1,64.0L52.4,65.2L51.9,66.3L51.3,66.0L50.9,65.1L51.2,64.6L52.1,64.0Z M27.4,47.7L28.4,47.1L29.6,47.0L31.1,47.9L30.3,48.9L30.6,49.9L29.5,51.1L27.0,51.9L25.1,51.7L26.2,50.3L25.5,48.8L27.4,47.7Z M31.9,47.2L32.4,46.6L31.9,46.2L31.2,46.8L31.1,45.5L30.4,44.8L30.9,43.3L32.0,42.2L33.1,42.3L34.8,42.2L33.3,43.7L34.7,43.5L36.3,43.5L35.9,44.7L34.6,45.9L36.1,46.0L36.2,46.2L37.4,47.8L38.4,48.0L39.3,49.6L39.6,50.2L41.3,50.4L41.2,51.3L40.5,51.7L41.0,52.5L39.8,53.2L37.9,53.2L35.5,53.6L34.9,53.3L33.9,53.9L32.6,53.8L31.7,54.3L30.9,54.0L33.0,52.6L34.2,52.3L34.2,52.3L32.0,52.0L31.6,51.5L33.1,51.0L32.3,50.3L32.6,49.4L34.7,49.5L34.7,49.5L34.9,48.7L33.9,47.8L33.9,47.8L32.2,47.6L31.9,47.2Z M11.1,35.2L7.2,34.8L8.6,34.1L5.5,33.5L8.0,33.2L7.9,32.8L5.0,32.5L5.9,31.5L8.1,31.3L10.2,32.3L12.4,31.5L14.1,31.9L16.4,31.2L18.7,31.3L18.4,32.2L20.0,33.1L18.2,34.2L14.1,35.2L12.9,35.4L11.1,35.2Z M56.4,71.6L56.6,70.9L58.2,71.0L59.6,70.8L60.7,70.7L60.2,71.8L60.4,72.2L60.1,73.0L59.0,72.4L58.3,72.3L56.4,71.6Z M55.9,47.6L54.4,46.8L54.2,46.2L56.3,45.7L56.7,46.4L55.9,47.6Z M68.9,34.1L66.6,35.2L63.9,36.5L62.9,38.4L63.9,39.4L65.2,40.2L64.0,41.8L62.5,42.1L62.0,44.4L61.2,45.7L59.5,45.6L58.7,46.7L57.1,46.8L56.6,45.5L55.5,43.9L54.4,41.9L53.5,41.0L50.7,42.6L48.8,43.0L46.9,42.3L46.4,40.8L46.0,37.5L47.3,36.6L50.9,35.5L53.7,34.0L56.3,32.1L59.6,29.4L62.0,28.3L65.8,26.6L68.9,26.0L71.2,26.0L73.3,24.9L75.8,24.9L78.4,24.7L82.7,25.7L80.9,26.1L82.5,26.9L80.1,27.5L78.9,27.6L78.7,28.6L80.9,29.5L79.6,30.6L81.2,32.2L80.3,33.4L81.5,34.4L81.0,35.3L83.0,36.3L82.5,37.0L81.2,37.8L78.2,39.6L78.2,39.6L78.2,39.6L75.7,39.7L73.2,40.2L70.9,40.5L70.1,39.7L68.8,39.3L69.1,37.9L68.4,36.6L69.1,35.8L70.4,35.0L73.6,33.4L74.5,33.1L74.3,32.6L72.4,31.9L70.0,32.3L68.6,33.3L68.9,34.1Z M74.0,74.6L75.0,74.7L75.0,75.0L75.7,74.8L75.6,75.2L73.5,75.3L73.6,75.1L71.9,74.8L72.1,74.2L72.9,74.7L74.0,74.6Z"/>
</svg>
