<!-- Middle East silhouette — Natural Earth 110m, CC BY-SA. fill="currentColor". -->
<svg xmlns="http://www.w3.org/2000/svg" viewBox="0 0 100 100" fill="currentColor" stroke="none" aria-hidden="true">
  <path d="M20.4,47.5L20.3,47.1L19.3,44.5L19.3,44.5L19.3,44.5L19.8,44.0L19.7,43.9L20.1,43.0L20.5,41.7L20.7,41.3L20.8,41.3L21.4,39.9L22.3,38.6L22.3,38.6L22.1,37.2L22.6,36.5L21.9,35.7L22.6,35.1L21.5,35.2L20.1,34.8L18.9,35.8L16.2,36.0L14.8,35.1L13.0,35.0L12.6,35.8L11.4,36.0L9.7,35.0L7.8,35.1L6.7,33.3L5.5,32.4L6.3,31.0L5.2,30.2L7.1,28.5L9.8,28.5L10.6,27.1L13.9,27.4L16.0,26.3L18.0,25.8L20.9,25.7L23.9,26.9L26.4,27.6L28.4,27.4L29.9,27.5L32.0,26.6L32.2,25.9L31.8,24.7L30.8,24.0L29.8,23.8L29.2,23.3L29.4,23.1L30.9,23.4L33.4,23.7L35.8,24.5L36.1,24.8L37.1,24.6L38.8,24.9L39.3,25.6L40.4,26.0L40.9,26.1L42.1,27.1L42.8,27.3L43.1,26.8L44.2,26.1L45.1,27.0L46.0,28.3L46.8,28.4L47.3,28.8L45.9,29.0L45.6,30.3L45.3,30.9L44.6,31.3L44.7,32.2L45.2,33.5L46.9,33.8L48.1,34.7L50.6,35.0L53.3,34.5L53.4,34.1L55.0,33.8L56.2,32.8L57.4,32.9L58.1,32.5L59.4,32.7L61.3,33.6L62.7,33.8L64.7,35.3L66.0,35.4L66.1,36.8L67.9,37.5L69.2,37.3L69.6,36.5L70.9,36.2L71.9,35.7L72.3,34.3L73.7,34.0L74.0,33.3L74.8,33.8L75.3,33.9L76.3,33.9L77.6,34.2L78.1,34.4L79.4,33.9L80.0,34.2L80.5,33.4L81.6,33.5L81.9,33.2L82.0,32.5L82.8,31.9L83.7,32.3L83.5,32.8L84.1,32.9L83.9,34.4L84.6,34.9L85.2,34.6L86.0,34.4L87.0,33.6L88.2,33.7L90.0,33.8L90.3,34.3L91.6,35.1L92.1,36.4L95.0,37.1L93.3,38.6L91.4,38.8L88.7,38.4L87.9,39.1L88.5,40.7L89.1,41.8L90.5,42.7L89.0,43.7L89.1,44.9L87.4,46.7L86.3,48.4L84.5,50.3L82.5,50.1L80.5,52.0L81.7,52.7L81.9,54.1L82.8,55.0L83.2,56.5L79.4,56.4L78.2,57.6L76.9,57.2L76.4,55.9L75.1,54.6L71.9,54.9L69.1,55.0L66.6,55.2L63.3,54.7L61.4,54.3L59.5,54.0L58.7,51.9L57.9,51.6L56.6,51.9L54.8,52.8L52.7,52.2L50.9,50.8L49.3,50.4L48.1,48.7L46.8,46.4L45.9,46.7L44.8,46.1L44.1,46.8L43.1,46.7L43.5,47.5L43.3,47.9L43.9,49.2L44.6,50.7L45.4,51.1L45.7,51.7L46.9,52.4L47.0,53.1L46.8,53.7L47.0,54.3L47.5,54.8L47.8,55.3L48.0,55.8L47.9,54.5L48.4,53.6L48.9,53.4L49.4,53.9L49.4,55.0L49.0,56.0L49.4,56.6L49.7,56.6L49.7,57.0L51.1,56.8L52.5,56.8L53.6,56.9L54.8,55.7L56.1,54.6L57.2,53.5L57.7,52.9L57.9,53.1L57.7,53.8L57.5,54.1L57.7,55.5L58.5,56.7L59.5,57.3L60.8,57.5L61.8,57.8L62.6,58.8L63.0,59.4L63.7,59.6L63.7,60.0L63.0,61.0L62.8,61.5L62.0,62.1L61.4,63.3L60.6,63.2L60.2,63.6L59.9,64.5L60.2,65.6L60.0,65.9L59.2,65.9L58.1,66.5L57.9,67.3L57.5,67.7L56.5,67.7L55.8,68.1L55.8,68.8L55.0,69.3L54.0,69.2L52.8,69.7L52.0,69.8L50.8,70.3L50.4,71.1L50.4,71.7L48.7,72.4L45.9,73.2L44.3,74.4L43.6,74.5L43.0,74.4L42.0,75.2L40.9,75.5L39.5,75.6L39.0,75.7L38.6,76.1L38.2,76.3L37.9,76.7L37.1,76.7L36.5,76.9L35.3,76.8L34.9,75.8L34.9,74.9L34.6,74.3L34.3,73.1L33.8,72.3L34.1,72.3L33.9,71.5L34.2,71.1L34.1,70.4L33.9,69.6L33.3,69.1L33.2,68.4L32.3,67.8L31.4,66.3L30.9,64.9L29.7,63.7L28.9,63.4L27.8,61.8L27.6,60.6L27.6,59.5L26.6,57.6L25.8,56.9L24.9,56.6L24.3,55.6L24.4,55.2L23.9,54.3L23.4,53.9L22.7,52.6L21.7,51.2L20.8,50.0L19.9,50.0L20.2,49.1L20.3,48.5L20.5,47.8L20.4,47.5Z M15.8,37.8L16.6,37.7L16.7,37.7L17.0,37.3L18.2,37.3L19.8,36.8L18.7,37.5L18.8,37.9L18.8,38.0L17.1,38.7L16.2,38.5L15.8,37.8Z M9.8,27.4L7.7,27.5L7.0,28.1L5.5,29.0L5.0,28.2L5.0,27.8L5.4,27.6L6.0,26.6L5.1,26.1L6.9,25.5L8.4,25.8L8.6,26.4L10.1,27.0L9.8,27.4Z"/>
</svg>
