<!-- Oceania silhouette — Natural Earth 110m, CC BY-SA. fill="currentColor". -->
<svg xmlns="http://www.w3.org/2000/svg" viewBox="0 0 100 100" fill="currentColor" stroke="none" aria-hidden="true">
  <path d="M87.0,54.7L86.9,54.6L86.7,54.8L86.7,54.8L86.5,54.7L86.4,54.5L86.3,54.4L86.2,54.1L86.2,54.0L86.3,54.1L86.6,54.1L86.7,54.1L86.9,54.1L87.1,54.1L87.1,54.4L87.0,54.5L87.0,54.7Z M80.9,52.3L80.7,52.3L80.5,52.4L80.3,52.3L80.1,52.3L80.0,52.4L79.8,52.5L79.8,52.5L79.6,52.5L79.5,52.6L79.3,52.6L79.2,52.6L78.9,52.5L78.8,52.4L78.8,52.3L78.9,52.2L78.9,52.2L78.9,52.1L79.0,51.9L78.9,51.8L78.8,51.5L78.7,51.4L78.8,51.2L78.7,51.1L78.7,51.0L78.5,50.9L78.5,50.7L78.4,50.5L78.3,50.4L78.4,50.5L78.4,50.3L78.5,50.3L78.6,50.4L78.6,50.3L78.4,50.1L78.4,50.0L78.3,50.0L78.4,49.8L78.4,49.7L78.5,49.6L78.4,49.5L78.5,49.3L78.6,49.5L78.7,49.3L78.9,49.2L79.0,49.1L79.2,49.0L79.3,49.0L79.4,49.0L79.6,49.0L79.7,48.9L79.7,48.9L79.8,48.8L80.0,48.9L80.2,48.8L80.3,48.7L80.4,48.5L80.6,48.4L80.6,48.3L80.6,48.2L80.8,48.0L80.9,48.2L81.0,48.1L80.9,48.0L81.0,47.9L81.1,47.9L81.1,47.7L81.2,47.6L81.3,47.5L81.4,47.5L81.4,47.4L81.5,47.4L81.5,47.4L81.6,47.3L81.8,47.3L82.0,47.4L82.1,47.6L82.2,47.6L82.4,47.6L82.4,47.5L82.5,47.3L82.6,47.2L82.5,47.1L82.7,47.0L82.8,46.9L82.9,46.9L83.1,46.9L83.1,46.8L83.0,46.7L83.1,46.6L83.3,46.7L83.4,46.8L83.6,46.9L83.7,46.8L83.8,46.9L84.0,46.8L84.1,46.9L84.1,46.8L84.2,46.9L84.2,47.1L84.1,47.2L84.0,47.2L84.0,47.3L83.9,47.4L83.9,47.5L83.9,47.6L84.1,47.7L84.3,47.8L84.4,47.9L84.6,48.1L84.6,48.1L84.8,48.1L84.8,48.2L85.1,48.3L85.2,48.2L85.3,48.1L85.3,48.0L85.3,47.8L85.4,47.6L85.4,47.5L85.4,47.4L85.4,47.3L85.4,47.1L85.5,47.0L85.4,47.0L85.5,46.8L85.5,46.7L85.5,46.6L85.6,46.5L85.7,46.6L85.7,46.8L85.8,46.8L85.8,46.9L85.9,47.1L85.9,47.2L85.9,47.3L86.0,47.5L86.1,47.4L86.2,47.5L86.3,47.6L86.3,47.7L86.4,47.9L86.4,48.1L86.5,48.1L86.5,48.3L86.5,48.4L86.6,48.6L86.9,48.7L87.0,48.8L87.2,49.0L87.2,49.0L87.3,49.2L87.4,49.4L87.5,49.4L87.6,49.5L87.7,49.5L87.7,49.7L87.9,49.9L88.0,50.0L88.2,50.2L88.3,50.4L88.3,50.5L88.3,50.7L88.4,50.9L88.4,51.1L88.3,51.2L88.3,51.4L88.3,51.6L88.2,51.8L88.1,52.0L87.9,52.1L87.8,52.3L87.8,52.4L87.7,52.7L87.6,52.8L87.5,53.0L87.5,53.1L87.5,53.2L87.4,53.3L87.1,53.3L86.8,53.4L86.7,53.5L86.6,53.6L86.4,53.5L86.2,53.5L86.3,53.3L86.1,53.4L85.9,53.6L85.7,53.5L85.5,53.5L85.4,53.4L85.2,53.4L85.0,53.2L85.0,53.0L84.9,52.9L84.8,52.8L84.5,52.8L84.6,52.6L84.6,52.5L84.4,52.6L84.2,52.7L84.3,52.5L84.4,52.4L84.5,52.3L84.5,52.1L84.2,52.3L84.1,52.4L84.0,52.6L83.8,52.5L83.8,52.3L83.7,52.2L83.5,52.1L83.6,52.0L83.2,51.9L83.1,51.9L82.8,51.7L82.4,51.8L82.1,51.8L81.8,51.9L81.5,51.9L81.3,52.0L81.1,52.1L81.0,52.2L80.9,52.3Z M5.1,47.9L5.0,48.0L5.0,48.0L5.0,47.9L5.1,47.9Z M89.9,46.2L90.1,46.2L90.2,46.3L90.2,46.3L90.1,46.3L90.0,46.3L89.9,46.3L89.9,46.2Z M89.6,45.8L89.6,45.7L89.6,45.7L89.7,45.7L89.9,45.9L90.0,45.9L90.0,46.0L89.8,45.9L89.6,45.8Z M89.1,45.5L89.1,45.5L89.3,45.6L89.4,45.7L89.3,45.7L89.2,45.7L89.1,45.5Z M86.5,45.1L86.5,45.2L86.9,45.4L87.0,45.5L86.7,45.5L86.8,45.7L87.0,45.9L87.2,46.1L87.3,46.1L87.3,46.2L87.5,46.3L87.4,46.3L87.7,46.4L87.7,46.5L87.5,46.5L87.4,46.5L87.2,46.4L87.0,46.4L86.8,46.2L86.6,46.1L86.5,45.9L86.2,45.8L86.0,45.8L85.8,45.9L85.9,46.1L85.7,46.2L85.5,46.1L85.3,46.1L85.3,45.3L85.3,44.5L85.7,44.7L86.1,44.8L86.3,45.0L86.5,45.1Z M88.9,45.6L88.8,45.5L88.7,45.3L88.6,45.1L88.7,45.1L88.7,45.2L88.8,45.2L88.9,45.4L89.0,45.5L89.0,45.6L88.9,45.6Z M87.1,45.3L87.1,45.2L87.3,45.3L87.5,45.2L87.5,45.1L87.5,45.1L87.6,45.2L87.7,45.2L87.8,45.1L87.9,45.0L87.9,44.9L88.0,44.9L88.1,44.9L88.1,45.1L88.0,45.2L87.9,45.2L87.8,45.3L87.7,45.4L87.6,45.4L87.4,45.4L87.2,45.4L87.1,45.3Z M88.2,44.9L88.1,44.8L88.0,44.7L87.8,44.6L87.7,44.5L87.7,44.5L87.9,44.6L88.0,44.6L88.1,44.7L88.2,44.8L88.3,44.9L88.3,45.0L88.2,45.0L88.2,44.9Z M93.0,54.2L93.0,54.1L93.2,54.0L93.3,54.1L93.3,54.2L93.5,54.1L93.6,54.2L93.6,54.3L93.5,54.4L93.3,54.6L93.2,54.7L93.3,54.8L93.1,54.8L92.9,54.9L92.8,55.1L92.7,55.3L92.5,55.4L92.3,55.5L92.1,55.5L91.9,55.4L91.7,55.4L91.6,55.3L91.8,55.1L92.1,54.9L92.2,54.8L92.4,54.7L92.6,54.6L92.8,54.5L92.9,54.3L93.0,54.2Z M93.8,54.2L93.7,54.2L93.8,54.0L93.7,53.8L93.5,53.7L93.5,53.6L93.6,53.6L93.7,53.4L93.7,53.2L93.6,53.0L93.6,53.0L93.5,52.9L93.3,52.7L93.2,52.5L93.3,52.5L93.4,52.6L93.6,52.7L93.7,52.9L93.8,53.2L93.8,53.0L94.0,53.1L94.0,53.2L94.2,53.3L94.4,53.3L94.5,53.3L94.6,53.3L94.6,53.5L94.5,53.6L94.3,53.6L94.2,53.7L94.3,53.8L94.2,53.9L94.1,54.0L94.0,54.2L93.8,54.3L93.8,54.2Z M91.4,49.3L91.2,49.1L91.0,49.0L91.0,48.9L91.1,48.9L91.3,49.0L91.4,49.1L91.4,49.1L91.6,49.3L91.8,49.4L91.7,49.5L91.5,49.4L91.4,49.3Z M94.3,48.4L94.3,48.3L94.4,48.2L94.5,48.2L94.6,48.2L94.7,48.3L94.6,48.4L94.5,48.4L94.3,48.4Z M94.6,48.0L94.8,48.0L94.9,48.0L95.0,47.9L95.0,48.0L94.8,48.1L94.7,48.1L94.6,48.0Z M91.8,47.8L92.0,48.0L91.9,48.0L91.8,47.9L91.8,47.8Z M91.8,47.8L91.8,47.8L91.7,47.8L91.7,47.7L91.7,47.5L91.8,47.6L91.8,47.8Z M90.5,46.5L90.6,46.6L90.4,46.6L90.3,46.4L90.5,46.5L90.5,46.5Z M90.3,46.1L90.4,46.3L90.4,46.3L90.2,46.1L90.1,45.9L90.2,45.9L90.3,46.1Z"/>
</svg>
